<svg width="127" height="44" viewBox="0 0 127 44" fill="none" xmlns="http://www.w3.org/2000/svg">
<path d="M24.0343 13.9696C23.9234 12.5754 23.4037 11.488 22.475 10.7072C21.5602 9.92649 20.1672 9.53612 18.296 9.53612C17.104 9.53612 16.1268 9.68251 15.3645 9.97528C14.616 10.2541 14.0616 10.6375 13.7012 11.1255C13.3409 11.6134 13.1537 12.1711 13.1399 12.7985C13.1122 13.3143 13.2022 13.7814 13.4102 14.1996C13.6319 14.6039 13.9784 14.9734 14.4497 15.308C14.921 15.6286 15.5239 15.9214 16.2585 16.1863C16.9931 16.4512 17.8664 16.6882 18.8782 16.8973L22.371 17.6502C24.7274 18.1521 26.7441 18.8143 28.4212 19.6369C30.0983 20.4594 31.4705 21.4284 32.5378 22.5437C33.6051 23.6451 34.3882 24.8859 34.8872 26.2662C35.4 27.6464 35.6634 29.1521 35.6773 30.7833C35.6634 33.5995 34.9634 35.9835 33.5774 37.9354C32.1913 39.8872 30.2092 41.372 27.6312 42.3897C25.0669 43.4075 21.983 43.9164 18.3792 43.9164C14.6784 43.9164 11.4489 43.3657 8.69061 42.2643C5.94621 41.1629 3.81167 39.469 2.287 37.1825C0.776195 34.8821 0.0138606 31.9404 0 28.3574H10.9776C11.0469 29.6679 11.3726 30.7693 11.9548 31.6616C12.5369 32.5539 13.3547 33.23 14.4081 33.6901C15.4754 34.1502 16.7436 34.3802 18.2129 34.3802C19.4465 34.3802 20.4791 34.2269 21.3107 33.9202C22.1424 33.6134 22.773 33.1882 23.2027 32.6445C23.6324 32.1008 23.8541 31.4804 23.868 30.7833C23.8541 30.128 23.6393 29.5564 23.2235 29.0684C22.8215 28.5665 22.1562 28.1204 21.2275 27.73C20.2989 27.3257 19.0445 26.9493 17.4644 26.6008L13.223 25.6806C9.45295 24.858 6.47984 23.4848 4.30372 21.5608C2.14147 19.6229 1.06727 16.981 1.08113 13.635C1.06727 10.9164 1.78802 8.53929 3.24339 6.5038C4.71261 4.45437 6.74319 2.85805 9.33513 1.71483C11.9409 0.57161 14.9279 0 18.296 0C21.7335 0 24.7066 0.578581 27.2153 1.73574C29.7241 2.8929 31.6577 4.52408 33.016 6.62928C34.3882 8.72053 35.0812 11.1673 35.0951 13.9696H24.0343Z" fill="black"/>
<path d="M27.4869 43.4145V0.585552H39.0466V17.3156H54.3488V0.585552H65.9085V43.4145H54.3488V26.6844H39.0466V43.4145H27.4869Z" fill="black"/>
<path d="M100.059 22C100.059 26.7681 99.1372 30.7902 97.2937 34.0665C95.4502 37.3289 92.9622 39.8036 89.8297 41.4905C86.6972 43.1635 83.2044 44 79.3511 44C75.4701 44 71.9634 43.1565 68.8309 41.4696C65.7123 39.7687 63.2312 37.2871 61.3877 34.0247C59.5581 30.7484 58.6433 26.7402 58.6433 22C58.6433 17.2319 59.5581 13.2167 61.3877 9.95438C63.2312 6.67807 65.7123 4.20342 68.8309 2.53042C71.9634 0.843472 75.4701 0 79.3511 0C83.2044 0 86.6972 0.843472 89.8297 2.53042C92.9622 4.20342 95.4502 6.67807 97.2937 9.95438C99.1372 13.2167 100.059 17.2319 100.059 22ZM88.1665 22C88.1665 19.4347 87.8269 17.2738 87.1477 15.5171C86.4824 13.7465 85.4914 12.4081 84.1746 11.5019C82.8717 10.5817 81.2639 10.1217 79.3511 10.1217C77.4383 10.1217 75.8236 10.5817 74.5068 11.5019C73.2039 12.4081 72.2129 13.7465 71.5337 15.5171C70.8684 17.2738 70.5358 19.4347 70.5358 22C70.5358 24.5653 70.8684 26.7332 71.5337 28.5038C72.2129 30.2605 73.2039 31.5989 74.5068 32.519C75.8236 33.4252 77.4383 33.8783 79.3511 33.8783C81.2639 33.8783 82.8717 33.4252 84.1746 32.519C85.4914 31.5989 86.4824 30.2605 87.1477 28.5038C87.8269 26.7332 88.1665 24.5653 88.1665 22Z" fill="black"/>
<path d="M92.8197 43.4145V0.585552H111.199C114.359 0.585552 117.124 1.21293 119.494 2.46768C121.865 3.72243 123.708 5.48606 125.025 7.75856C126.342 10.0311 127 12.6869 127 15.7262C127 18.7934 126.321 21.4493 124.962 23.6939C123.618 25.9385 121.726 27.6673 119.287 28.8802C116.861 30.0932 114.026 30.6996 110.783 30.6996H99.8054V21.6654H108.454C109.813 21.6654 110.97 21.4284 111.927 20.9544C112.897 20.4664 113.638 19.7763 114.151 18.884C114.678 17.9918 114.941 16.9392 114.941 15.7262C114.941 14.4994 114.678 13.4537 114.151 12.5894C113.638 11.711 112.897 11.0418 111.927 10.5817C110.97 10.1077 109.813 9.87072 108.454 9.87072H104.379V43.4145H92.8197Z" fill="black"/>
</svg>
