<svg width="18" height="13" viewBox="0 0 18 13" fill="none" xmlns="http://www.w3.org/2000/svg">
<path d="M6.33333 11.3296C7.06971 11.3296 7.66667 10.9274 7.66667 10.4314C7.66667 9.93529 7.06971 9.53314 6.33333 9.53314C5.59695 9.53314 5 9.93529 5 10.4314C5 10.9274 5.59695 11.3296 6.33333 11.3296Z" stroke="white" stroke-width="1.8" stroke-linecap="round" stroke-linejoin="round"/>
<path d="M14.3333 11.3296C15.0697 11.3296 15.6667 10.9274 15.6667 10.4314C15.6667 9.93529 15.0697 9.53314 14.3333 9.53314C13.597 9.53314 13 9.93529 13 10.4314C13 10.9274 13.597 11.3296 14.3333 11.3296Z" stroke="white" stroke-width="1.8" stroke-linecap="round" stroke-linejoin="round"/>
<path d="M4.78002 3.69469H16.3334L15.2134 7.46276C15.1524 7.66953 14.9854 7.85526 14.7417 7.98745C14.4979 8.11965 14.1929 8.18987 13.88 8.18583H6.83335C6.50781 8.18769 6.1925 8.10925 5.94689 7.9653C5.70128 7.82134 5.54233 7.62183 5.50002 7.40437L4.48669 2.23058C4.44466 2.01467 4.28764 1.81639 4.04482 1.67264C3.80201 1.52889 3.48994 1.44946 3.16669 1.44913H1.66669" stroke="white" stroke-width="1.8" stroke-linecap="round" stroke-linejoin="round"/>
</svg>
